<?xml version="1.0" standalone="no"?><!DOCTYPE svg PUBLIC "-//W3C//DTD SVG 1.1//EN" "http://www.w3.org/Graphics/SVG/1.1/DTD/svg11.dtd"><svg class="icon" width="200px" height="200.00px" viewBox="0 0 1024 1024" version="1.1" xmlns="http://www.w3.org/2000/svg"><path fill="#fff" d="M487.8336 174.8992c14.7456 7.0656 24.1664 22.016 24.1664 38.4v597.3504a42.6496 42.6496 0 0 1-69.3248 33.3312l-201.6256-161.28H85.3504a42.6496 42.6496 0 0 1-42.7008-42.7008v-256c0-23.552 19.0976-42.6496 42.7008-42.6496h155.648l201.728-161.3312c12.8-10.24 30.3104-12.288 45.056-5.12zM783.5136 180.1728a42.6496 42.6496 0 0 1 60.3136 0 469.3504 469.3504 0 0 1 0 663.6544 42.6496 42.6496 0 1 1-60.3648-60.3648 384 384 0 0 0 0-542.9248 42.6496 42.6496 0 0 1 0-60.3648zM632.832 330.8032a42.6496 42.6496 0 0 1 60.3136 0 256 256 0 0 1 0 361.984 42.6496 42.6496 0 0 1-60.3136-60.3648 170.6496 170.6496 0 0 0 0-241.3056 42.6496 42.6496 0 0 1 0-60.3136z"  /></svg>