<?xml version="1.0" standalone="no"?><!DOCTYPE svg PUBLIC "-//W3C//DTD SVG 1.1//EN" "http://www.w3.org/Graphics/SVG/1.1/DTD/svg11.dtd"><svg class="icon" width="200px" height="200.00px" viewBox="0 0 1024 1024" version="1.1" xmlns="http://www.w3.org/2000/svg"><path fill="#fff" d="M503.296 186.5728a38.1952 38.1952 0 0 0-21.1456-34.1504 36.7616 36.7616 0 0 0-39.424 4.608l-62.8224 50.944L503.296 294.912V186.5728zM265.984 345.9072H131.4304a36.9664 36.9664 0 0 0-26.3168 11.0592 38.0416 38.0416 0 0 0-10.9056 26.6752v227.584c0 9.984 3.8912 19.6096 10.9056 26.6752a36.9664 36.9664 0 0 0 26.3168 11.1104h134.5536l176.7424 143.36a36.9664 36.9664 0 0 0 54.8352-9.4208 38.1952 38.1952 0 0 0 5.6832-20.1728V506.5216L269.1072 342.2208l-3.1232 3.6864zM741.376 738.6624a37.9904 37.9904 0 0 0-10.9056 26.8288 38.4512 38.4512 0 0 0 10.9568 26.88 37.376 37.376 0 0 0 26.4704 11.1104 36.9152 36.9152 0 0 0 26.4704-11.1104c15.36-15.872 29.44-32.8704 42.1376-50.9952l-61.44-43.2128c-10.1376 14.336-21.4016 27.904-33.6384 40.448zM727.9616 451.9424a230.4512 230.4512 0 0 0-16.896-87.1936 227.84 227.84 0 0 0-48.5888-73.9328 37.4272 37.4272 0 0 0-26.4704-11.1104 36.9664 36.9664 0 0 0-26.4704 11.1104 38.0416 38.0416 0 0 0-8.0896 41.3696c1.8944 4.608 4.608 8.8064 8.0896 12.288 13.1584 13.1072 23.808 28.5696 31.4368 45.568l86.528 65.024 0.512-3.1232zM609.1264 604.3648a38.2464 38.2464 0 0 0 12.1344 61.952 36.9664 36.9664 0 0 0 40.7552-8.192c7.4752-7.9872 14.3872-16.5376 20.6336-25.4976l-61.44-40.96c-3.7888 4.4544-7.8336 8.704-12.0832 12.6976zM914.5344 451.9424a420.4544 420.4544 0 0 0-120.6272-294.912 37.376 37.376 0 0 0-26.4704-11.1616 36.9664 36.9664 0 0 0-26.4704 11.1616 38.0416 38.0416 0 0 0-10.9568 26.8288 38.5024 38.5024 0 0 0 10.9568 26.88 340.1728 340.1728 0 0 1 84.992 145.92 343.8592 343.8592 0 0 1 4.7104 169.472l65.536 45.4656a422.4 422.4 0 0 0 18.3296-119.6544zM962.56 663.9616L194.4064 157.1328c-13.7216-9.0112-32.6656-4.096-42.3936 11.0592-9.728 15.104-6.4512 34.7136 7.2704 43.776l768.256 506.7776c13.7216 9.0624 32.6656 4.096 42.3936-11.008 9.728-15.1552 6.4512-34.7136-7.2704-43.776z"  /></svg>